<svg id="Capa_1" enable-background="new 0 0 509.619 509.619" height="512" viewBox="0 0 509.619 509.619" width="512" xmlns="http://www.w3.org/2000/svg"><g><g><path d="m453.005 429.03v61.06c0 7.11-5.746 12.88-12.818 12.88h-370.755c-7.072 0-12.818-5.77-12.818-12.88v-61.06c0-48.1 33.195-88.42 77.842-99.09l244.061.86c42.941 11.85 74.488 51.34 74.488 98.23z" fill="#f7f8f4"/><path d="m289.295 502.97 37.56-130.88-3.72-34.54c-41.25 29.02-85.83 24.13-126.36 2.77l-20.13 32.98 36.15 129.67z" fill="#a6e7f0"/><path d="m203.08 249.542v40.66c0 6.549-3.781 12.543-9.77 15.477l-43.21 23.879c-.19.105-.18.384.017.478 76.333 36.596 131.087 42.622 209.235 1.458.536-.282.531-1.061-.012-1.329l-49.547-24.49c-5.992-2.93-9.767-8.921-9.767-15.468v-40.131z" fill="#ffdecf"/><path d="m271.245 359.52c-39 2.93-76.36-8.02-121.13-29.48-.19-.1-.2-.38-.01-.48l43.21-23.88c5.99-2.93 9.77-8.93 9.77-15.48v-40.66l25 .14v40.52c0 6.55-3.78 12.55-9.77 15.48l-32.63 18.03c-4.62 2.55-4.36 9.29.44 11.46 30.62 13.82 57.94 22.33 85.12 24.35z" fill="#ffcdbe"/><path d="m136.028 161.791c-4.686.428-8.728-3.261-8.728-7.967v-96.472c0-9.333 6.952-16.899 15.527-16.899h5.508c8.575 0 15.527-7.566 15.527-16.899 0-9.333 6.952-16.899 15.527-16.899h177.87c7.614 0 13.787 6.718 13.787 15.005v111.35c0 4.136-3.153 7.59-7.272 7.967z" fill="#544f56"/><path d="m180.746 502.966-56.076-112.22c-2.29-4.597-1.145-10.124 2.785-13.478l15.842-13.488c4.497-3.829 5.26-10.386 1.774-15.125l-13.81-18.712-.969-1.313c-2.764-3.738-2.805-8.487-.691-12.155 1.145-2.001 2.919-3.678 5.239-4.718l33.984-15.196c5.363-2.405 11.655.354 13.408 5.87l3.455 10.871 60.315 189.663h-65.256z" fill="#eee"/><path d="m332.606 502.966 56.076-112.22c2.3-4.597 1.155-10.124-2.785-13.478l-15.832-13.488c-4.497-3.829-5.27-10.386-1.784-15.125l13.181-17.853 1.599-2.172c2.764-3.738 2.805-8.477.701-12.144-1.145-2.001-2.929-3.688-5.25-4.728l-33.974-15.196c-5.373-2.405-11.665.354-13.418 5.87l-3.455 10.881-60.305 189.653z" fill="#eee"/><path d="m199.436 77.311c-6.504 30.768-28.913 41.06-36.685 43.748-1.609.557-2.68 2.073-2.68 3.775v60.268c0 38.832 32.142 70.329 71.793 70.329h38.974c39.65 0 71.782-31.497 71.782-70.329v-56.64c0-2.368-2.044-4.21-4.4-3.973-42.895 4.307-89.694-8.775-132.114-49.285-2.272-2.171-6.02-.968-6.67 2.107z" fill="#ffdecf"/><path d="m204.385 6.649c-4.28 0-8.16 1.89-10.97 4.95s-4.55 7.29-4.55 11.95c0 9.34-6.95 16.9-15.53 16.9h-5.51c-8.57 0-15.52 7.57-15.52 16.9v102.951l-16.27 1.49c-4.687.429-8.73-3.26-8.73-7.967v-96.473c0-9.33 6.95-16.9 15.52-16.9h5.51c8.58 0 15.53-7.56 15.53-16.9 0-4.66 1.74-8.89 4.55-11.95s6.69-4.95 10.97-4.95h25z" fill="#444145"/><path d="m158.933 190.768c-17.368 0-31.457-13.801-31.457-30.816 0-16.944 13.975-30.705 31.251-30.816z" fill="#ffdecf"/><path d="m344.581 190.768c17.368 0 31.457-13.801 31.457-30.816s-14.089-30.816-31.457-30.816z" fill="#ffdecf"/><path d="m256.865 255.43h-25c-39.65 0-71.79-31.49-71.79-70.33v-60.264c0-1.709 1.081-3.221 2.696-3.78 7.631-2.645 29.283-12.594 36.264-41.936.91-3.85 5.61-5.28 8.5-2.57 4.5 4.22 9.04 8.13 13.62 11.75-8.796 22.313-26.623 30.413-33.391 32.758-1.612.558-2.689 2.072-2.689 3.778v60.264c0 38.84 32.14 70.33 71.79 70.33z" fill="#ffcdbe"/><path d="m81.615 429.03v61.06c0 7.11 5.75 12.88 12.82 12.88h-25c-7.07 0-12.82-5.77-12.82-12.88v-61.06c0-48.1 33.19-88.42 77.84-99.09l24.65.09c-44.47 10.79-77.49 51.03-77.49 99z" fill="#eee"/></g><path d="m389.293 326.094c1.055-4.497.453-9.327-1.886-13.487-1.95-3.478-4.905-6.197-8.552-7.866l-33.167-15.145c-4.458-2.036-9.58-2.059-14.051-.061-4.471 1.997-7.87 5.826-9.327 10.506l-1.053 3.382-9.259-4.633c-3.321-1.657-5.385-4.993-5.385-8.705v-36.045c21.061-11.083 36.428-31.559 40.498-55.829 18.956-2.235 33.711-18.391 33.711-37.937 0-6.803-1.795-13.191-4.925-18.73.031-.278.051-.559.051-.845v-118.25c.001-12.379-9.401-22.449-20.958-22.449h-173.65c-6.184 0-11.966 2.628-16.299 7.417-4.102 4.565-6.361 10.576-6.361 16.923 0 5.15-3.436 9.34-7.66 9.34h-5.38c-12.489 0-22.65 10.919-22.65 24.34v28.79c0 4.143 3.358 7.5 7.5 7.5s7.5-3.357 7.5-7.5v-28.79c0-5.15 3.432-9.34 7.65-9.34h5.38c12.495 0 22.66-10.919 22.66-24.34 0-2.64.895-5.09 2.502-6.879.832-.919 2.607-2.461 5.158-2.461h173.65c3.23 0 5.96 3.411 5.96 7.449v104.313c-3.968-2.18-8.364-3.669-13.025-4.321-.873-3.176-3.772-5.511-7.225-5.511-.296 0-2.557-.042-3.42.14-62.983 13.129-111.929-38.063-125.438-54.074-2.621-3.097-6.672-4.376-10.571-3.336-3.937 1.048-6.843 4.207-7.586 8.241-8.744 47.364-31.133 46.919-31.205 46.919-4.142 0-7.5 3.357-7.5 7.5v.288c-6.322 1.074-12.121 3.712-16.99 7.498v-9.295c0-4.143-3.358-7.5-7.5-7.5s-7.5 3.357-7.5 7.5v42.09c0 1.012.203 1.976.567 2.857 2.417 16.743 15.727 30.003 32.492 32.35 4.07 24.468 19.622 45.089 40.92 56.138v35.837c0 3.713-2.066 7.053-5.385 8.712l-.65.324c-1.599-4.254-4.817-7.722-8.99-9.585-4.471-1.996-9.587-1.972-14.033.063l-33.185 15.148c-3.638 1.665-6.589 4.381-8.524 7.834-2.134 3.779-2.832 8.109-2.161 12.241-20.018 6.569-37.98 18.982-51.248 35.57-15.375 19.221-23.842 43.389-23.842 68.051v60.851c0 11.21 9.12 20.329 20.33 20.329h315.53c4.142 0 7.5-3.357 7.5-7.5s-3.358-7.5-7.5-7.5h-41.864l49.457-101.034c3.734-7.62 1.87-16.829-4.531-22.393l-15.458-13.443c-1.472-1.28-1.721-3.441-.585-5.018l9.719-13.443c37.999 12.735 64.121 48.671 64.121 89.151v60.851c0 2.938-2.391 5.329-5.33 5.329h-21.53c-4.142 0-7.5 3.357-7.5 7.5s3.358 7.5 7.5 7.5h21.53c11.21 0 20.33-9.119 20.33-20.329v-60.851c0-45.873-28.928-86.732-71.377-102.347zm-137.403 168.525-41.44-133.027c13.787 5.288 27.518 7.944 41.156 7.944 17.976 0 35.79-4.594 53.349-13.772l-43.249 138.855zm113.933-334.345c0 10.873-7.516 20.019-17.624 22.527v-45.054c10.108 2.508 17.624 11.655 17.624 22.527zm-227.666 0c0-10.555 7.129-19.515 16.823-22.306v44.616c-9.701-2.782-16.823-11.727-16.823-22.31zm31.823 25.066v-56.338c9.922-2.442 27.489-12.135 36.549-49.415 17.922 19.193 58.081 54.63 110.13 54.626 5.387-.001 10.908-.39 16.54-1.207v52.334c0 34.512-28.073 62.59-62.58 62.59h-38.05c-34.512 0-62.589-28.078-62.589-62.59zm28.305 126.874c8.44-4.221 13.683-12.701 13.683-22.132v-29.95c6.565 1.811 13.468 2.798 20.602 2.798h38.05c7.276 0 14.312-1.029 20.994-2.911v30.067c0 9.435 5.244 17.913 13.68 22.123l11.444 5.726-5.083 16.321c-35.273 23.977-70.369 26.716-107.119 8.35l-9.035-29.003zm-59.011 7.719c.387-.69.957-1.212 1.687-1.546l33.185-15.148c.695-.316 1.299-.179 1.683-.008.316.141.883.493 1.125 1.269l59.226 190.12h-48.837l-52.683-107.623c-.746-1.529-.374-3.376.898-4.483l15.467-13.443c7.36-6.397 8.605-17.196 2.889-25.128l-14.433-19.962c-1.033-1.426-.79-3.016-.207-4.048zm-75.325 169.357v-60.851c0-42.075 27.457-78.463 67.353-90.169l10.448 14.45c1.145 1.59.901 3.751-.567 5.027l-15.473 13.449c-6.383 5.562-8.247 14.763-4.528 22.385l49.459 101.037h-101.361c-2.939.001-5.331-2.389-5.331-5.328zm314.081-106.777c1.278 1.11 1.649 2.949.902 4.474l-52.687 107.633h-48.827l55.844-179.277 3.373-10.843c.229-.735.737-1.096 1.124-1.268.387-.174.997-.311 1.7.01l33.161 15.142c.923.423 1.437 1.082 1.709 1.567.57 1.014.811 2.604-.23 4.042l-14.43 19.959c-5.707 7.919-4.458 18.718 2.904 25.117z"/></g></svg>