<svg id="Capa_1" enable-background="new 0 0 512 512" height="512" viewBox="0 0 512 512" width="512" xmlns="http://www.w3.org/2000/svg"><g><g><g><path d="m370.318 170.218-28.572-28.572 20-20c7.89-7.89 20.682-7.89 28.572 0 7.89 7.89 7.89 20.682 0 28.572z" fill="#454045"/></g><g><path d="m48.886 463.078c-55.229-55.229-55.229-144.773 0-200.002l108.573-108.573c55.229-55.229 144.773-55.229 200.002 0 55.229 55.229 55.229 144.773 0 200.002l-108.573 108.573c-55.229 55.229-144.773 55.229-200.002 0z" fill="#efecef"/></g><g><path d="m394.109 217.999c-12.973 37.15-36.609 75.038-69.863 108.292-84.224 84.224-198.187 106.816-254.543 50.46-25.557-25.557-34.877-62.961-29.577-104.066-46.285 55.561-43.372 138.262 8.76 190.394 55.229 55.229 144.773 55.229 200.002 0l108.573-108.573c36.984-36.985 49.197-89.357 36.648-136.507z" fill="#d3ced5"/></g><g><path d="m257.46 254.504c-7.89-7.89-7.89-20.682 0-28.572l28.572-28.572c7.89-7.89 20.682-7.89 28.572 0 7.89 7.89 7.89 20.682 0 28.572l-28.572 28.572c-7.89 7.89-20.682 7.89-28.572 0z" fill="#544f57"/></g></g><g><path d="m300.679 400.679-57.094 57.095c-25.295 25.295-58.926 39.226-94.698 39.226s-69.403-13.931-94.698-39.226c-52.216-52.216-52.216-137.179 0-189.395l41.569-41.569c2.929-2.93 2.929-7.678 0-10.607-2.929-2.928-7.678-2.928-10.606 0l-41.569 41.569c-58.064 58.065-58.064 152.544 0 210.609 28.128 28.128 65.526 43.619 105.304 43.619s77.176-15.49 105.304-43.618l57.095-57.095c2.929-2.93 2.929-7.678 0-10.607s-7.677-2.929-10.607-.001z"/><path d="m509.768 2.196c-2.93-2.928-7.678-2.928-10.607 0l-40.243 40.243c-1.959 1.962-5.184 1.996-7.182.078l-.519-.498c-11.36-10.897-29.662-10.707-40.792.426-5.507 5.506-8.539 12.826-8.539 20.613s3.032 15.107 8.538 20.614c2.002 2.001 2.002 5.259 0 7.26l-20.835 20.835c-4.094-2.306-8.73-3.539-13.557-3.539-7.399 0-14.356 2.882-19.588 8.114l-15.084 15.083c-24.534-16.8-53.519-25.844-83.9-25.844-39.778 0-77.176 15.49-105.304 43.618l-42.245 42.244c-2.929 2.93-2.929 7.678 0 10.607 2.929 2.928 7.678 2.928 10.606 0l42.245-42.244c25.295-25.295 58.926-39.226 94.697-39.226 33.26 0 64.665 12.049 89.243 34.072l-32.835 32.835c-10.551-5.912-24.176-4.395-33.138 4.568l-28.573 28.572c-8.963 8.964-10.48 22.588-4.568 33.139l-16.861 16.861c-2.929 2.93-2.929 7.678 0 10.607 1.464 1.464 3.384 2.196 5.303 2.196s3.839-.732 5.303-2.196l16.861-16.861c4.193 2.35 8.869 3.533 13.549 3.533 7.094 0 14.189-2.701 19.591-8.102l28.571-28.571c8.963-8.964 10.48-22.588 4.568-33.139l32.836-32.835c22.023 24.578 34.072 55.983 34.072 89.243 0 35.771-13.931 69.402-39.226 94.697l-26.688 26.688c-2.929 2.93-2.929 7.678 0 10.607 1.465 1.464 3.385 2.196 5.304 2.196s3.839-.732 5.304-2.196l26.688-26.688c28.128-28.128 43.618-65.526 43.618-105.305 0-30.381-9.045-59.366-25.844-83.9l15.083-15.083c5.233-5.232 8.115-12.189 8.115-19.589 0-4.828-1.234-9.463-3.539-13.558l20.835-20.835c3.803-3.803 5.896-8.859 5.896-14.237s-2.094-10.435-5.896-14.237c-2.674-2.673-4.146-6.227-4.146-10.007 0-3.779 1.472-7.333 4.146-10.007 5.403-5.404 14.286-5.497 19.8-.209l.519.498c7.848 7.526 20.484 7.394 28.175-.294l40.243-40.243c2.929-2.926 2.929-7.675 0-10.604zm-200.469 218.433-28.57 28.571c-4.955 4.953-13.015 4.953-17.966 0-4.953-4.952-4.953-13.012-.001-17.965l28.573-28.571c2.476-2.477 5.729-3.715 8.982-3.715s6.506 1.238 8.981 3.715c4.955 4.953 4.955 13.012.001 17.965zm75.715-75.714-13.65 13.651c-2.722-3.221-5.584-6.35-8.6-9.366s-6.145-5.878-9.366-8.6l13.652-13.651c2.399-2.399 5.589-3.721 8.981-3.721 3.391 0 6.578 1.32 8.978 3.717.001.001.003.003.004.005.002.002.004.003.005.005 2.396 2.399 3.716 5.586 3.716 8.978.002 3.392-1.319 6.581-3.72 8.982z"/></g></g></svg>