<?xml version="1.0" encoding="iso-8859-1"?>
<!-- Generator: Adobe Illustrator 19.0.0, SVG Export Plug-In . SVG Version: 6.00 Build 0)  -->
<svg version="1.1" id="Capa_1" xmlns="http://www.w3.org/2000/svg" xmlns:xlink="http://www.w3.org/1999/xlink" x="0px" y="0px"
	 viewBox="0 0 512 512" style="enable-background:new 0 0 512 512;" xml:space="preserve">
<path style="fill:#45B8C4;" d="M389.823,63.498v68.824h-48.665V63.498c0-3.984-3.244-7.229-7.229-7.229h-155.85
	c-3.995,0-7.239,3.244-7.239,7.229v68.824h-48.665V63.498c0-30.872,25.032-55.894,55.904-55.894h155.85
	C364.801,7.604,389.823,32.626,389.823,63.498z"/>
<path style="fill:#D8A32E;" d="M488.006,229.122v224.286c0,28.155-22.832,50.987-50.987,50.987H74.99
	c-28.165,0-50.997-22.832-50.997-50.987V229.122H488.006z"/>
<path style="fill:#FCC63F;" d="M488.006,285.959v167.449c0,28.159-22.828,50.987-50.987,50.987H122.124
	c-28.159,0-50.987-22.828-50.987-50.987V326.862c0-22.59,18.312-40.902,40.902-40.902h375.966V285.959z"/>
<path style="fill:#45B8C4;" d="M293.78,363.471H218.22c-13.84,0-25.06-11.219-25.06-25.06V230.662h125.679v107.749
	C318.84,352.251,307.621,363.471,293.78,363.471z"/>
<rect x="221.782" y="230.663" style="fill:#424C59;" width="68.436" height="93.275"/>
<path style="fill:#D8A32E;" d="M504.4,170.034v79.385H7.609v-79.385c0-21.666,17.56-39.236,39.226-39.236h418.329
	C486.829,130.798,504.4,148.368,504.4,170.034z"/>
<path style="fill:#FCC63F;" d="M504.4,170.034v79.385H68.43v-79.385c0-21.666,17.57-39.236,39.236-39.236h357.497
	C486.829,130.798,504.4,148.368,504.4,170.034z"/>
<path d="M488.008,265.64c-4.199,0-7.604,3.405-7.604,7.604v180.162c0,23.923-19.463,43.386-43.387,43.386H184.145
	c-4.199,0-7.604,3.405-7.604,7.604s3.405,7.604,7.604,7.604h252.872c32.31,0,58.595-26.285,58.595-58.594V273.244
	C495.611,269.045,492.207,265.64,488.008,265.64z"/>
<path d="M158.796,496.792H74.985c-23.923,0-43.386-19.463-43.386-43.386V273.244c0-4.199-3.405-7.604-7.604-7.604
	s-7.604,3.405-7.604,7.604v180.162c0,32.309,26.285,58.594,58.594,58.594h83.813c4.199,0,7.604-3.405,7.604-7.604
	S162.997,496.792,158.796,496.792z"/>
<path d="M465.164,123.197H46.838c-25.826,0-46.837,21.01-46.837,46.836v79.383c0,4.199,3.405,7.604,7.604,7.604h389.944
	c4.199,0,7.604-3.405,7.604-7.604c0-4.199-3.405-7.604-7.604-7.604H15.208v-71.779c0-17.439,14.189-31.628,31.628-31.628h418.327
	c17.439,0,31.628,14.189,31.628,31.628v71.779h-73.895c-4.199,0-7.604,3.405-7.604,7.604c0,4.199,3.405,7.604,7.604,7.604h81.499
	c4.199,0,7.604-3.405,7.604-7.604v-79.383C512,144.207,490.989,123.197,465.164,123.197z"/>
<path d="M122.175,113.053c4.199,0,7.604-3.405,7.604-7.604V63.498c0-26.627,21.667-48.29,48.3-48.29h155.85
	c26.627,0,48.29,21.663,48.29,48.29v41.951c0,4.199,3.405,7.604,7.604,7.604s7.604-3.405,7.604-7.604V63.498
	C397.427,28.485,368.942,0,333.929,0h-155.85c-35.019,0-63.508,28.485-63.508,63.498v41.951
	C114.571,109.649,117.975,113.053,122.175,113.053z"/>
<path d="M341.158,113.053c4.199,0,7.604-3.405,7.604-7.604V63.498c0-8.179-6.654-14.833-14.833-14.833h-155.85
	c-8.184,0-14.843,6.654-14.843,14.833v41.951c0,4.199,3.405,7.604,7.604,7.604s7.604-3.405,7.604-7.604V63.873h155.11v41.576
	C333.554,109.649,336.959,113.053,341.158,113.053z"/>
<path d="M193.161,265.64c-4.199,0-7.604,3.405-7.604,7.604v65.167c0,18.01,14.653,32.662,32.663,32.662h75.561
	c18.01,0,32.663-14.652,32.663-32.662v-65.167c0-4.199-3.405-7.604-7.604-7.604c-4.199,0-7.604,3.405-7.604,7.604v65.167
	c0,9.625-7.83,17.455-17.455,17.455h-75.561c-9.625,0-17.456-7.83-17.456-17.455v-65.167
	C200.765,269.045,197.36,265.64,193.161,265.64z"/>
<path d="M221.784,265.64c-4.199,0-7.604,3.405-7.604,7.604v50.688c0,4.199,3.405,7.604,7.604,7.604h68.432
	c4.199,0,7.604-3.405,7.604-7.604v-50.688c0-4.199-3.405-7.604-7.604-7.604s-7.604,3.405-7.604,7.604v43.084h-53.225v-43.084
	C229.388,269.045,225.985,265.64,221.784,265.64z"/>
<g>
</g>
<g>
</g>
<g>
</g>
<g>
</g>
<g>
</g>
<g>
</g>
<g>
</g>
<g>
</g>
<g>
</g>
<g>
</g>
<g>
</g>
<g>
</g>
<g>
</g>
<g>
</g>
<g>
</g>
</svg>
